<?xml version="1.0" encoding="UTF-8" standalone="no"?>
<!-- Generator: Adobe Illustrator 16.0.0, SVG Export Plug-In . SVG Version: 6.00 Build 0)  -->
<!DOCTYPE svg  PUBLIC '-//W3C//DTD SVG 1.1//EN'  'http://www.w3.org/Graphics/SVG/1.1/DTD/svg11.dtd'>
<svg id="Capa_1" style="enable-background:new 0 0 90 90" xmlns="http://www.w3.org/2000/svg" xml:space="preserve" height="90px" viewBox="0 0 90 90" width="90px" version="1.1" y="0px" x="0px" xmlns:xlink="http://www.w3.org/1999/xlink">
	<path id="Facebook__x28_alt_x29_" d="m90 15.001c0-7.882-7.116-15.001-15-15.001h-60c-7.884 0-15 7.119-15 15.001v59.998c0 7.882 7.116 15.001 15.001 15.001h29.999v-34h-11v-15h11v-5.844c0-10.079 7.568-19.156 16.875-19.156h12.125v15h-12.125c-1.327 0-2.875 1.611-2.875 4.024v5.976h15v15h-15v34h16c7.884 0 15-7.119 15-15.001v-59.998z"/>
</svg>
