<?xml version="1.0" encoding="UTF-8" standalone="no"?>
<!-- Generator: Adobe Illustrator 18.0.0, SVG Export Plug-In . SVG Version: 6.00 Build 0)  -->
<!DOCTYPE svg  PUBLIC '-//W3C//DTD SVG 1.1//EN'  'http://www.w3.org/Graphics/SVG/1.1/DTD/svg11.dtd'>
<svg id="Layer_1" xmlns="http://www.w3.org/2000/svg" xml:space="preserve" viewBox="23.8 1.7 55 65.4" version="1.1" y="0px" x="0px" xmlns:xlink="http://www.w3.org/1999/xlink" enable-background="new 23.8 1.7 55 65.4">
<path d="m78.8 5.6v43.1c0 2.1-1.6 4.8-3.4 5.9l-20.7 11.8c-1.9 1-5 1-6.8 0l-20.7-11.8c-1.9-1-3.4-3.7-3.4-5.9v-43.1c0-2.1 1.8-3.9 3.9-3.9h47c2.2 0 4.1 1.8 4.1 3.9zm-9 24v-2.1l-3.2-0.8c-0.1-0.4-0.1-0.8-0.1-1.2l2.8-1.8-0.7-1.9-3.3 0.2c-0.1-0.4-0.4-0.7-0.5-1l2.1-2.5-1.2-1.7-3 1.3c-0.3-0.3-0.5-0.6-0.8-0.8l1.3-3-1.8-1.3-2.5 2.1c-0.4-0.2-0.7-0.4-1-0.5l0.2-3.3-1.9-0.7-1.9 2.8c-0.4-0.1-0.7-0.1-1.2-0.1l-0.8-3.3h-2.1l-0.8 3.2c-0.4 0.1-0.8 0.1-1.2 0.1l-1.8-2.8-1.9 0.7 0.2 3.3c-0.4 0.1-0.7 0.4-1 0.5l-2.5-2-1.6 1.2 1.3 3c-0.3 0.3-0.6 0.5-0.8 0.8l-3-1.3-1.3 1.7 2.1 2.5c-0.2 0.4-0.4 0.7-0.5 1h-3.4l-0.7 1.9 2.8 1.8c-0.1 0.4-0.1 0.7-0.1 1.2l-3.3 0.7v2.1l3.2 0.8c0.1 0.4 0.1 0.8 0.1 1.2l-2.8 1.8 0.7 1.9 3.3-0.2c0.1 0.4 0.4 0.7 0.5 1l-2.1 2.5 1.2 1.6 3-1.3c0.3 0.3 0.5 0.6 0.8 0.8l-1.3 3 1.6 1.2 2.5-2.1c0.4 0.2 0.7 0.4 1 0.5l-0.1 3.4 1.9 0.7 1.8-2.8c0.4 0.1 0.7 0.1 1.2 0.1l0.8 3.2h2.1l0.8-3.2c0.4-0.1 0.8-0.1 1.2-0.1l1.8 2.8 1.9-0.7-0.2-3.3c0.4-0.1 0.7-0.4 1-0.5l2.5 2.1 1.6-1.2-1.3-3c0.3-0.3 0.6-0.5 0.8-0.8l3 1.3 1.2-1.6-2.1-2.5c0.2-0.4 0.4-0.7 0.5-1l3.3 0.2 0.7-1.9-2.8-1.9c0.1-0.4 0.1-0.7 0.1-1.2l3.7-0.8zm-18.5 8.2c-5.1 0-9.3-4.1-9.3-9.3s4.1-9.3 9.3-9.3 9.3 4.1 9.3 9.3-4.2 9.3-9.3 9.3zm0-20.6c-2.1 0-3.9 0.5-5.6 1.5l-1.2-1.7c2-1.2 4.3-1.9 6.8-1.9 4.1 0 7.9 1.9 10.3 4.9l-1.7 1.2c-2-2.5-5.1-4-8.6-4zm-8.5 1l1.2 1.7c-2.4 2.1-4 5.2-4 8.7 0 2.1 0.5 3.9 1.5 5.6l-1.7 1.2c-1.2-2-1.9-4.3-1.9-6.8 0-4.2 1.9-7.9 4.9-10.4zm-0.2 17.7c2.1 2.4 5.2 4 8.7 4 2.1 0 3.9-0.5 5.6-1.5l1.2 1.7c-2 1.2-4.3 1.9-6.8 1.9-4.1 0-7.9-1.9-10.3-4.9l1.6-1.2zm17.2 2.9l-1.2-1.7c2.4-2.1 4-5.2 4-8.7 0-2.1-0.5-3.9-1.5-5.6l1.7-1.2c1.2 2 1.9 4.3 1.9 6.8 0 4.3-1.9 8-4.9 10.4z"/>
</svg>
