<?xml version="1.0" encoding="UTF-8" standalone="no"?>
<!-- Generator: Adobe Illustrator 18.1.1, SVG Export Plug-In . SVG Version: 6.00 Build 0)  -->
<svg id="Capa_1" style="enable-background:new 0 0 16 16" xmlns="http://www.w3.org/2000/svg" xml:space="preserve" viewBox="0 0 16 16" version="1.1" y="0px" x="0px" xmlns:xlink="http://www.w3.org/1999/xlink">
		<g fill="#090509">
			<path d="m13 0h-10c-1.657 0-3 1.343-3 3v10c0 1.657 1.343 3 3 3h10c1.657 0 3-1.343 3-3v-10c0-1.657-1.343-3-3-3zm-7.232 13.383c-1.771 0-3.265-0.721-3.265-1.873 0-1.169 1.363-2.298 3.134-2.297l0.553-0.005c-0.242-0.235-0.434-0.524-0.434-0.881 0-0.212 0.068-0.415 0.162-0.596l-0.295 0.01c-1.455 0-2.429-1.035-2.429-2.318 0-1.255 1.345-2.338 2.775-2.338h3.19l-0.716 0.516h-1.011c0.671 0.258 1.028 1.04 1.028 1.842 0 0.673-0.373 1.253-0.9 1.665-0.515 0.403-0.612 0.571-0.612 0.913 0 0.292 0.552 0.788 0.84 0.993 0.843 0.596 1.114 1.149 1.114 2.072 0 1.152-1.115 2.297-3.134 2.297zm8.232-6.364h-2v1.997h-0.999v-1.997h-2.001v-1.019h2.001v-2h0.999v2h2v1.019z"/>
			<path d="m7.314 5.505c-0.142-1.078-0.923-1.944-1.744-1.969-0.821-0.024-1.372 0.801-1.23 1.881 0.142 1.079 0.923 1.974 1.745 1.998 0.82 0.025 1.372-0.83 1.229-1.91z"/>
			<path d="m6.769 9.639c-0.242-0.078-0.509-0.125-0.794-0.128-1.224-0.013-2.32 0.746-2.32 1.659 0 0.932 0.884 1.706 2.108 1.706 1.721 0 2.32-0.728 2.32-1.658 0-0.112-0.015-0.222-0.039-0.329-0.134-0.528-0.611-0.789-1.275-1.25z"/>
		</g>
</svg>
