<?xml version="1.0" encoding="UTF-8" standalone="no"?>
<!-- Generator: Adobe Illustrator 18.0.0, SVG Export Plug-In . SVG Version: 6.00 Build 0)  -->
<!DOCTYPE svg  PUBLIC '-//W3C//DTD SVG 1.1//EN'  'http://www.w3.org/Graphics/SVG/1.1/DTD/svg11.dtd'>
<svg id="Layer_1" xmlns="http://www.w3.org/2000/svg" xml:space="preserve" viewBox="23.8 1.7 55 65.4" version="1.1" y="0px" x="0px" xmlns:xlink="http://www.w3.org/1999/xlink" enable-background="new 23.8 1.7 55 65.4">
<path d="m78.8 5.6v43.1c0 2.1-1.6 4.8-3.4 5.9l-20.7 11.8c-1.9 1-5 1-6.8 0l-20.7-11.8c-1.9-1-3.4-3.7-3.4-5.9v-43.1c0-2.1 1.8-3.9 3.9-3.9h47c2.2 0 4.1 1.8 4.1 3.9zm-10 22.8c-0.7 0-1.3 0.2-1.7 0.7l-6.1-1.9 5.3-5.3c0.4 0.1 0.9 0.3 1.4 0.3 2.1 0 3.8-1.7 3.8-3.8s-1.7-3.8-3.8-3.8-3.8 1.7-3.8 3.8c0 0.4 0.1 0.9 0.2 1.3l-6.4 6.4-6.7-1.9c-0.2-1.2-1.3-2-2.5-2-1.4 0-2.5 1.1-2.5 2.5 0 0.3 0.1 0.7 0.1 0.9l-4.1 4.1-5.7-5.6c0.1-0.1 0.1-0.4 0.1-0.5 0-1.4-1.1-2.5-2.5-2.5s-2.5 1.1-2.5 2.5 1.1 2.5 2.5 2.5h0.1l6 5.9-3.3 3.2c-0.5-0.2-1-0.4-1.6-0.4-2.1 0-3.8 1.7-3.8 3.8s1.7 3.8 3.8 3.8 3.8-1.7 3.8-3.8c0-0.7-0.2-1.4-0.6-2l3.1-3.1 4.1 4.1c0 0.1-0.1 0.3-0.1 0.4 0 1.4 1.1 2.5 2.5 2.5s2.5-1.1 2.5-2.5v-0.3l8.8-8.8 7 2.1c0 1.4 1.1 2.5 2.5 2.5s2.5-1.1 2.5-2.5c0.1-1.5-1-2.6-2.4-2.6zm-1.3-12.4c1.4 0 2.5 1.1 2.5 2.5s-1.1 2.5-2.5 2.5-2.5-1.1-2.5-2.5c0.1-1.4 1.2-2.5 2.5-2.5zm-32.4 25c-1.4 0-2.5-1.1-2.5-2.5s1.1-2.5 2.5-2.5c1.4 0 2.5 1.1 2.5 2.5-0.1 1.4-1.2 2.5-2.5 2.5zm13.2-5.6c-0.1 0-0.3-0.1-0.4-0.1h-0.3l-4.1-4.1 4.1-4.1c0.3 0.1 0.6 0.1 0.9 0.1 0.9 0 1.6-0.4 2.1-1.1l5.4 1.6-7.7 7.7z"/>
</svg>
