<?xml version="1.0" encoding="UTF-8" standalone="no"?>
<!-- Generator: Adobe Illustrator 18.0.0, SVG Export Plug-In . SVG Version: 6.00 Build 0)  -->
<!DOCTYPE svg  PUBLIC '-//W3C//DTD SVG 1.1//EN'  'http://www.w3.org/Graphics/SVG/1.1/DTD/svg11.dtd'>
<svg id="Camada_1" xmlns="http://www.w3.org/2000/svg" xml:space="preserve" viewBox="18.8 1.9 65.1 65.1" version="1.1" y="0px" x="0px" xmlns:xlink="http://www.w3.org/1999/xlink" enable-background="new 18.8 1.9 65.1 65.1">
<g id="outter">
	<path id="outside" d="m83.5 33.9l-1.3-1.1c-0.4-0.3-0.4-0.8-0.1-1.2l1.1-1.2c0.3-0.4 0.2-0.9-0.2-1.1l-1.4-0.9c-0.4-0.3-0.5-0.8-0.3-1.2l0.9-1.4c0.3-0.4 0.1-0.9-0.3-1.1l-1.5-0.7c-0.4-0.2-0.6-0.7-0.4-1.1l0.7-1.5c0.2-0.4 0-0.9-0.5-1l-1.6-0.4c-0.5-0.1-0.7-0.6-0.6-1.1l0.5-1.6c0.1-0.5-0.1-0.9-0.6-0.9l-1.6-0.2c-0.5-0.1-0.8-0.5-0.7-1l0.3-1.6c0.1-0.5-0.2-0.9-0.7-0.8h-1.7c-0.5 0-0.9-0.4-0.9-0.9v-1.7c0-0.5-0.4-0.8-0.8-0.7l-1.4 0.5c-0.5 0.1-0.9-0.2-1-0.7l-0.2-1.6c-0.1-0.5-0.5-0.7-0.9-0.6l-1.6 0.5c-0.5 0.1-0.9-0.1-1.1-0.6l-0.4-1.6c-0.1-0.5-0.6-0.7-1-0.5l-1.5 0.7c-0.4 0.2-0.9 0-1.1-0.4l-0.7-1.5c-0.2-0.4-0.7-0.6-1.1-0.3l-1.4 0.9c-0.4 0.3-0.9 0.2-1.2-0.3l-0.9-1.4c-0.3-0.4-0.7-0.5-1.1-0.2l-1.2 1.1c-0.4 0.3-0.9 0.3-1.2-0.1l-1.1-1.3c-0.3-0.4-0.8-0.4-1.1 0l-1.1 1.3c-0.3 0.4-0.8 0.4-1.2 0.1l-1.2-1.1c-0.4-0.3-0.9-0.2-1.1 0.2l-0.7 1.4c-0.3 0.4-0.8 0.5-1.2 0.3l-1.4-0.9c-0.4-0.3-0.9-0.1-1.1 0.3l-0.6 1.5c-0.2 0.4-0.7 0.6-1.1 0.4l-1.5-0.7c-0.4-0.2-0.9 0-1 0.5l-0.4 1.5c-0.1 0.5-0.6 0.7-1.1 0.6l-1.6-0.5c-0.5-0.1-0.9 0.1-0.9 0.6l-0.2 1.6c-0.1 0.5-0.5 0.8-1 0.7l-1.6-0.3c-0.5-0.1-0.9 0.2-0.8 0.7v1.7c0 0.5-0.4 0.9-0.9 0.9h-1.7c-0.5 0-0.8 0.4-0.7 0.8l0.3 1.6c0.1 0.5-0.2 0.9-0.7 1l-1.6 0.2c-0.5 0.1-0.7 0.5-0.6 0.9l0.5 1.6c0.1 0.5-0.1 0.9-0.6 1.1l-1.6 0.4c-0.5 0.1-0.7 0.6-0.5 1l0.7 1.5c0.2 0.4 0 0.9-0.4 1.1l-1.5 0.7c-0.4 0.2-0.6 0.7-0.3 1.1l0.9 1.4c0.3 0.4 0.2 0.9-0.3 1.2l-1.4 0.9c-0.4 0.2-0.4 0.6-0.1 1l1.1 1.2c0.3 0.4 0.3 0.9-0.1 1.2l-1.3 1.1c-0.4 0.3-0.4 0.8 0 1.1l1.3 1.1c0.4 0.3 0.4 0.8 0.1 1.2l-1.1 1.2c-0.3 0.4-0.2 0.9 0.2 1.1l1.4 0.9c0.4 0.3 0.5 0.8 0.3 1.2l-1 1.3c-0.3 0.4-0.1 0.9 0.3 1.1l1.5 0.7c0.4 0.2 0.6 0.7 0.4 1.1l-0.7 1.5c-0.2 0.4 0 0.9 0.5 1l1.6 0.4c0.5 0.1 0.7 0.6 0.6 1.1l-0.5 1.6c-0.1 0.5 0.1 0.9 0.6 0.9l1.6 0.2c0.5 0.1 0.8 0.5 0.7 1l-0.3 1.6c-0.1 0.5 0.2 0.9 0.7 0.8h1.7c0.5 0 0.9 0.4 0.9 0.9v1.7c0 0.5 0.4 0.8 0.8 0.7l1.6-0.3c0.5-0.1 0.9 0.2 1 0.7l0.2 1.6c0.1 0.5 0.5 0.7 0.9 0.6l1.6-0.5c0.5-0.1 0.9 0.1 1.1 0.6l0.4 1.6c0.1 0.5 0.6 0.7 1 0.5l1.5-0.7c0.4-0.2 0.9 0 1.1 0.4l0.7 1.5c0.2 0.4 0.7 0.6 1.1 0.3l1.4-0.9c0.4-0.3 0.9-0.2 1.2 0.3l0.9 1.4c0.3 0.4 0.7 0.5 1.1 0.2l1.2-1.1c0.4-0.3 0.9-0.3 1.2 0.1l1.1 1.3c0.3 0.4 0.8 0.4 1.1 0l1.1-1.3c0.3-0.4 0.8-0.4 1.2-0.1l1.2 1.1c0.4 0.3 0.9 0.2 1.1-0.2l0.9-1.4c0.3-0.4 0.8-0.5 1.2-0.3l1.4 0.9c0.4 0.3 0.9 0.1 1.1-0.3l0.7-1.5c0.2-0.4 0.7-0.6 1.1-0.4l1.5 0.7c0.4 0.2 0.9 0 1-0.5l0.4-1.6c0.1-0.5 0.6-0.7 1.1-0.6l1.6 0.5c0.5 0.1 0.9-0.1 0.9-0.6l0.2-1.6c0.1-0.5 0.5-0.8 1-0.7l1.6 0.3c0.5 0.1 0.9-0.2 0.8-0.7v-1.7c0-0.5 0.4-0.9 0.9-0.9h1.7c0.5 0 0.8-0.4 0.7-0.8l-0.3-1.6c-0.1-0.5 0.2-0.9 0.7-1l1.6-0.2c0.5-0.1 0.7-0.5 0.6-0.9l-0.5-1.6c-0.1-0.5 0.1-0.9 0.6-1.1l1.6-0.4c0.5-0.1 0.7-0.6 0.5-1l-0.7-1.5c-0.2-0.4 0-0.9 0.4-1.1l1.5-0.7c0.4-0.2 0.6-0.7 0.3-1.1l-0.9-1.4c-0.3-0.4-0.2-0.9 0.3-1.2l1.4-0.9c0.4-0.3 0.5-0.7 0.2-1.1l-1.1-1.2c-0.3-0.4-0.3-0.9 0.1-1.2l1.3-1.1c-0.1-0.2-0.1-0.7-0.5-1zm-32.2 28.7c-15.6 0-28.2-12.6-28.2-28.2s12.6-28.1 28.2-28.1 28.2 12.6 28.2 28.2-12.6 28.1-28.2 28.1z"/>
</g>
<g id="middle">
	<path d="m26.5 24.7l-0.5-0.6c-0.1 0.2-0.2 0.4-0.2 0.6l0.5 0.6c0.1-0.2 0.2-0.4 0.2-0.6z"/>
	<path d="m26.1 25.8l-0.5-0.6c-0.1 0.2-0.1 0.4-0.2 0.6l0.5 0.6c0.1-0.2 0.2-0.4 0.2-0.6z"/>
	<path d="m27 23.6l-0.5-0.6-0.3 0.6 0.5 0.6 0.3-0.6z"/>
	<path d="m27.5 22.6l-0.4-0.7-0.3 0.6 0.4 0.6c0.1-0.1 0.2-0.3 0.3-0.5z"/>
	<path d="m28.6 20.6l-0.4-0.7-0.3 0.6 0.4 0.7c0.1-0.3 0.2-0.5 0.3-0.6z"/>
	<path d="m28 21.6l-0.4-0.7-0.3 0.6 0.4 0.6c0.1-0.2 0.2-0.4 0.3-0.5z"/>
	<path d="m25.8 26.9l-0.5-0.6c-0.1 0.2-0.1 0.4-0.2 0.6l0.5 0.5c0.1-0.1 0.1-0.3 0.2-0.5z"/>
	<path d="m25 30.3l-0.6-0.5c0 0.2-0.1 0.4-0.1 0.6l0.6 0.5c0.1-0.2 0.1-0.4 0.1-0.6z"/>
	<path d="m24.9 31.5l-0.7-0.5c0 0.2-0.1 0.4-0.1 0.7l0.6 0.4c0.1-0.2 0.1-0.4 0.2-0.6z"/>
	<path d="m25.5 28l-0.5-0.5c-0.1 0.2-0.1 0.4-0.2 0.6l0.6 0.5c0-0.2 0-0.4 0.1-0.6z"/>
	<path d="m25.2 29.2l-0.6-0.5c0 0.2-0.1 0.4-0.1 0.6l0.6 0.5c0-0.2 0.1-0.4 0.1-0.6z"/>
	<path d="m33 15.2l-0.2-0.8c-0.2 0.1-0.3 0.3-0.5 0.5l0.2 0.7c0.2-0.2 0.3-0.3 0.5-0.4z"/>
	<path d="m35.7 12.9l-0.1-0.8c-0.2 0.1-0.4 0.3-0.5 0.4l0.1 0.8c0.1-0.1 0.3-0.2 0.5-0.4z"/>
	<path d="m34.7 13.6l-0.1-0.8c-0.2 0.1-0.3 0.3-0.5 0.4l0.1 0.8c0.2-0.1 0.4-0.2 0.5-0.4z"/>
	<path d="m33.8 14.4l-0.1-0.8c-0.2 0.1-0.3 0.3-0.5 0.4l0.2 0.7c0.1 0 0.3-0.2 0.4-0.3z"/>
	<path d="m36.6 12.3v-0.8c-0.2 0.1-0.3 0.2-0.5 0.3l0.1 0.8c0.1-0.1 0.2-0.2 0.4-0.3z"/>
	<path d="m29.2 19.6l-0.3-0.7c-0.1 0.1-0.1 0.2-0.2 0.3s-0.1 0.2-0.2 0.2l0.4 0.7c0.1-0.2 0.2-0.3 0.3-0.5z"/>
	<path d="m37.6 11.6v-0.8l-0.6 0.3v0.8c0.2 0 0.4-0.1 0.6-0.3z"/>
	<path d="m30.6 17.7l-0.3-0.7c-0.1 0.2-0.3 0.3-0.4 0.5l0.3 0.7c0.2-0.2 0.3-0.3 0.4-0.5z"/>
	<path d="m29.9 18.6l-0.3-0.7c-0.1 0.2-0.3 0.3-0.4 0.5l0.3 0.7c0.2-0.1 0.3-0.3 0.4-0.5z"/>
	<path d="m24.8 37.3l-0.7-0.3c0 0.2 0 0.4 0.1 0.7l0.7 0.3c0-0.3 0-0.5-0.1-0.7z"/>
	<path d="m31.4 16.8l-0.2-0.7c-0.1 0.2-0.3 0.3-0.4 0.5l0.3 0.7c0-0.2 0.1-0.3 0.3-0.5z"/>
	<path d="m32.1 16l-0.2-0.7-0.5 0.5 0.2 0.7c0.3-0.2 0.4-0.4 0.5-0.5z"/>
	<path d="m34.6 55.1l-0.7 0.3c0.2 0.1 0.3 0.3 0.5 0.4l0.7-0.3c-0.2-0.1-0.4-0.2-0.5-0.4z"/>
	<path d="m30.5 51l-0.8 0.1c0.1 0.2 0.3 0.3 0.4 0.5l0.8-0.1c-0.1-0.1-0.3-0.3-0.4-0.5z"/>
	<path d="m32 52.8l-0.7 0.2c0.1 0.2 0.3 0.3 0.5 0.5l0.7-0.2c-0.2-0.2-0.3-0.4-0.5-0.5z"/>
	<path d="m29.8 50.1l-0.8 0.1c0.1 0.2 0.3 0.4 0.4 0.5l0.8-0.1c-0.2-0.2-0.3-0.3-0.4-0.5z"/>
	<path d="m31.2 51.9l-0.8 0.1c0.1 0.2 0.3 0.3 0.4 0.5l0.7-0.2c0-0.1-0.1-0.2-0.3-0.4z"/>
	<path d="m28.5 48.2h-0.8l0.3 0.6h0.8c-0.1-0.3-0.2-0.4-0.3-0.6z"/>
	<path d="m29.1 49.2h-0.8c0.1 0.2 0.2 0.3 0.3 0.5v0.1l0.8-0.1c0-0.2-0.1-0.4-0.3-0.5z"/>
	<path d="m38.6 11.1v-0.8l-0.6 0.3v0.8l0.6-0.3z"/>
	<path d="m35.5 55.9l-0.7 0.3c0.2 0.1 0.3 0.3 0.5 0.4l0.7-0.3c-0.2-0.2-0.3-0.3-0.5-0.4z"/>
	<path d="m36.5 56.5l-0.7 0.3c0.1 0.1 0.2 0.1 0.3 0.2s0.2 0.1 0.2 0.2l0.7-0.4c-0.2 0-0.4-0.2-0.5-0.3z"/>
	<path d="m27.9 47.2h-0.8l0.3 0.6h0.8c-0.1-0.3-0.2-0.4-0.3-0.6z"/>
	<path d="m32.8 53.6l-0.7 0.2 0.5 0.5 0.7-0.2-0.5-0.5z"/>
	<path d="m33.7 54.4l-0.7 0.2c0.2 0.1 0.3 0.3 0.5 0.4l0.7-0.3c-0.2 0-0.3-0.2-0.5-0.3z"/>
	<path d="m24.8 32.6l-0.6-0.4v0.7l0.6 0.4v-0.7z"/>
	<path d="m25 38.4l-0.7-0.3c0 0.2 0.1 0.4 0.1 0.6l0.7 0.3c0-0.2-0.1-0.4-0.1-0.6z"/>
	<path d="m27.4 46.1l-0.8-0.1 0.3 0.6h0.8c-0.1-0.1-0.2-0.3-0.3-0.5z"/>
	<path d="m24.7 33.8l-0.7-0.4v0.7l0.7 0.4v-0.7z"/>
	<path d="m25.2 39.6l-0.7-0.3c0 0.2 0.1 0.4 0.1 0.6l0.7 0.2c0-0.1-0.1-0.3-0.1-0.5z"/>
	<path d="m25.4 40.7l-0.7-0.2c0 0.2 0.1 0.4 0.2 0.6l0.7 0.2c-0.1-0.2-0.1-0.4-0.2-0.6z"/>
	<path d="m24.7 34.9l-0.7-0.4v0.7l0.7 0.4v-0.7z"/>
	<path d="m26.5 44l-0.8-0.1c0.1 0.2 0.2 0.4 0.2 0.6l0.8 0.1c-0.1-0.2-0.2-0.4-0.2-0.6z"/>
	<path d="m26.9 45.1l-0.8-0.1v0.1c0.1 0.2 0.2 0.4 0.2 0.5l0.8 0.1c0-0.2-0.1-0.4-0.2-0.6z"/>
	<path d="m26.1 42.9l-0.8-0.2c0.1 0.2 0.1 0.4 0.2 0.6l0.8 0.1c-0.1-0.1-0.2-0.3-0.2-0.5z"/>
	<path d="m25.7 41.8l-0.7-0.2c0.1 0.2 0.1 0.4 0.2 0.6l0.7 0.2c-0.1-0.2-0.1-0.4-0.2-0.6z"/>
	<path d="m24.8 36.1l-0.7-0.4v0.7l0.7 0.3v-0.6z"/>
	<path d="m68.9 14.5l0.7-0.2c-0.2-0.1-0.3-0.3-0.5-0.4l-0.7 0.3c0.2 0.1 0.4 0.2 0.5 0.3z"/>
	<path d="m73.5 19.8h0.8c-0.1-0.2-0.2-0.4-0.4-0.5l-0.8 0.1c0.2 0 0.3 0.2 0.4 0.4z"/>
	<path d="m72.1 17.9l0.8-0.1c-0.1-0.2-0.3-0.3-0.4-0.5l-0.8 0.1c0.2 0.2 0.3 0.3 0.4 0.5z"/>
	<path d="m72.8 18.8l0.8-0.1c-0.1-0.2-0.3-0.4-0.4-0.5l-0.8 0.1c0.2 0.2 0.3 0.4 0.4 0.5z"/>
	<path d="m74.7 21.8h0.8l-0.3-0.6h-0.8l0.3 0.6z"/>
	<path d="m67.1 13.1l0.7-0.3c-0.2-0.1-0.3-0.3-0.5-0.4l-0.7 0.3c0.2 0.1 0.4 0.3 0.5 0.4z"/>
	<path d="m74.1 20.8h0.8l-0.3-0.6h-0.8l0.3 0.6z"/>
	<path d="m71.4 17l0.8-0.1c-0.1-0.2-0.3-0.3-0.4-0.5l-0.8 0.1c0.1 0.2 0.3 0.4 0.4 0.5z"/>
	<path d="m68.1 13.8l0.7-0.3c-0.2-0.1-0.3-0.3-0.5-0.4l-0.7 0.3c0.1 0.1 0.3 0.3 0.5 0.4z"/>
	<path d="m37.4 57.1l-0.7 0.4 0.6 0.3 0.7-0.4c-0.2 0-0.4-0.1-0.6-0.3z"/>
	<path d="m70.6 16.2l0.8-0.2c-0.1-0.2-0.3-0.3-0.5-0.5l-0.7 0.2c0.1 0.2 0.3 0.3 0.4 0.5z"/>
	<path d="m69.8 15.3l0.7-0.2-0.5-0.5-0.7 0.2c0.2 0.2 0.3 0.4 0.5 0.5z"/>
	<path d="m75.2 22.8l0.8 0.1-0.3-0.6h-0.8c0.1 0.1 0.2 0.3 0.3 0.5z"/>
	<path d="m77.8 31.7l0.7 0.3c0-0.2 0-0.4-0.1-0.7l-0.7-0.3c0 0.3 0 0.5 0.1 0.7z"/>
	<path d="m77.8 32.8l0.7 0.4v-0.7l-0.7-0.3v0.6z"/>
	<path d="m77.9 35.2l0.7 0.4v-0.7l-0.7-0.4v0.7z"/>
	<path d="m75.7 23.9l0.8 0.1s0-0.1-0.1-0.1c-0.1-0.2-0.1-0.3-0.2-0.5l-0.8-0.1 0.3 0.6z"/>
	<path d="m77.9 34l0.7 0.4v-0.7l-0.7-0.4v0.7z"/>
	<path d="m77.6 30.5l0.7 0.3c0-0.2-0.1-0.4-0.1-0.6l-0.7-0.3c0 0.2 0.1 0.4 0.1 0.6z"/>
	<path d="m76.5 26l0.8 0.2c-0.1-0.2-0.1-0.4-0.2-0.6l-0.8-0.1c0.1 0.1 0.2 0.3 0.2 0.5z"/>
	<path d="m76.1 24.9l0.8 0.1c-0.1-0.2-0.2-0.4-0.2-0.6l-0.8-0.1c0.1 0.2 0.2 0.4 0.2 0.6z"/>
	<path d="m39.6 10.5l0.1-0.8-0.6 0.3v0.8c0.2-0.1 0.3-0.2 0.5-0.3z"/>
	<path d="m77.4 29.4l0.7 0.3c0-0.2-0.1-0.4-0.1-0.6l-0.7-0.2c0 0.1 0.1 0.3 0.1 0.5z"/>
	<path d="m76.9 27.1l0.7 0.2c-0.1-0.2-0.1-0.4-0.2-0.6l-0.7-0.2c0.1 0.2 0.1 0.4 0.2 0.6z"/>
	<path d="m77.2 28.3l0.7 0.2c0-0.2-0.1-0.4-0.2-0.6l-0.7-0.2c0.1 0.2 0.1 0.4 0.2 0.6z"/>
	<path d="m47.4 8.1l0.3-0.7c-0.2 0-0.4 0.1-0.6 0.1l-0.3 0.7c0.2 0 0.4 0 0.6-0.1z"/>
	<path d="m48.5 8l0.3-0.7c-0.2 0-0.4 0-0.7 0.1l-0.3 0.7c0.3-0.1 0.5-0.1 0.7-0.1z"/>
	<path d="m49.7 7.9l0.3-0.7h-0.7l-0.3 0.7h0.7z"/>
	<path d="m52 7.9l0.4-0.7h-0.7l-0.4 0.7c0.3-0.1 0.5-0.1 0.7 0z"/>
	<path d="m50.8 7.8l0.4-0.7h-0.7l-0.4 0.7c0.3 0.1 0.5 0.1 0.7 0z"/>
	<path d="m46.2 8.3l0.3-0.7c-0.2 0-0.4 0.1-0.6 0.1l-0.2 0.7c0.1 0 0.3 0 0.5-0.1z"/>
	<path d="m40.7 10l0.1-0.8h-0.1c-0.2 0.1-0.3 0.1-0.5 0.2l-0.1 0.8c0.2 0 0.4-0.1 0.6-0.2z"/>
	<path d="m41.8 9.6l0.1-0.8c-0.2 0.1-0.4 0.2-0.6 0.2l-0.1 0.8c0.2 0 0.4-0.1 0.6-0.2z"/>
	<path d="m45.1 8.6l0.2-0.7c-0.2 0-0.4 0.1-0.6 0.2l-0.2 0.7c0.2-0.1 0.4-0.2 0.6-0.2z"/>
	<path d="m42.9 9.2l0.1-0.7c-0.2 0.1-0.4 0.1-0.6 0.2l-0.1 0.8c0.2-0.2 0.4-0.2 0.6-0.3z"/>
	<path d="m44 8.9l0.2-0.7c-0.2 0.1-0.4 0.1-0.6 0.2l-0.2 0.6c0.2 0 0.4-0.1 0.6-0.1z"/>
	<path d="m62.1 10.1l0.6-0.4-0.6-0.3-0.6 0.5c0.3 0.1 0.4 0.2 0.6 0.2z"/>
	<path d="m66.2 12.4l0.7-0.3c-0.1-0.1-0.2-0.2-0.3-0.2s-0.1-0.1-0.2-0.1l-0.7 0.4c0.1 0 0.3 0.1 0.5 0.2z"/>
	<path d="m63.2 10.6l0.7-0.4-0.6-0.3-0.6 0.4c0.1 0.2 0.3 0.3 0.5 0.3z"/>
	<path d="m65.2 11.8l0.7-0.4-0.6-0.3-0.7 0.4c0.3 0.1 0.4 0.2 0.6 0.3z"/>
	<path d="m61.1 9.7l0.6-0.5c-0.2-0.1-0.4-0.2-0.6-0.2l-0.6 0.5c0.2 0 0.4 0.1 0.6 0.2z"/>
	<path d="m64.2 11.2l0.7-0.4-0.6-0.3-0.6 0.4c0.2 0.1 0.3 0.2 0.5 0.3z"/>
	<path d="m58.9 8.9l0.6-0.5c-0.2-0.1-0.4-0.1-0.6-0.2l-0.5 0.5c0.1 0.1 0.3 0.2 0.5 0.2z"/>
	<path d="m54.3 8l0.5-0.6c-0.2 0-0.4-0.1-0.7-0.1l-0.4 0.7h0.6z"/>
	<path d="m55.5 8.2l0.5-0.6c-0.2 0-0.4-0.1-0.6-0.1l-0.5 0.6c0.2 0 0.4 0 0.6 0.1z"/>
	<path d="m56.6 8.4l0.5-0.6c-0.2 0-0.4-0.1-0.6-0.1l-0.5 0.6c0.2 0 0.4 0 0.6 0.1z"/>
	<path d="m53.2 7.9l0.4-0.6h-0.7l-0.4 0.6h0.7z"/>
	<path d="m60 9.3l0.6-0.5c-0.2-0.1-0.4-0.1-0.6-0.2l-0.6 0.5c0.2 0.1 0.4 0.1 0.6 0.2z"/>
	<path d="m57.8 8.6l0.5-0.5c-0.2-0.1-0.4-0.1-0.6-0.2l-0.5 0.6c0.1 0 0.3 0.1 0.6 0.1z"/>
	<path d="m77.4 39.8l0.6 0.5c0-0.2 0.1-0.4 0.1-0.6l-0.6-0.5c-0.1 0.2-0.1 0.4-0.1 0.6z"/>
	<path d="m75.6 45.3l0.4 0.6 0.3-0.6-0.5-0.6c0 0.2-0.1 0.4-0.2 0.6z"/>
	<path d="m76 44.2l0.5 0.6c0.1-0.2 0.2-0.4 0.2-0.6l-0.5-0.6c0 0.2-0.1 0.4-0.2 0.6z"/>
	<path d="m55.2 60.8l-0.2 0.7c0.2 0 0.4-0.1 0.6-0.1l0.3-0.7c-0.2 0-0.4 0-0.7 0.1z"/>
	<path d="m46 60.5l-0.5 0.6c0.2 0 0.4 0.1 0.6 0.1l0.5-0.6c-0.2 0-0.4 0-0.6-0.1z"/>
	<path d="m76.8 42l0.5 0.6c0.1-0.2 0.1-0.4 0.2-0.6l-0.5-0.6c-0.1 0.2-0.1 0.4-0.2 0.6z"/>
	<path d="m77.1 40.9l0.5 0.5c0.1-0.2 0.1-0.4 0.2-0.6l-0.6-0.5c0 0.2 0 0.4-0.1 0.6z"/>
	<path d="m43.8 60l-0.6 0.5c0.2 0.1 0.4 0.1 0.6 0.2l0.5-0.5c-0.1-0.1-0.3-0.2-0.5-0.2z"/>
	<path d="m76.4 43.1l0.5 0.6c0.1-0.2 0.1-0.4 0.2-0.6l-0.5-0.6c0 0.2-0.1 0.4-0.2 0.6z"/>
	<path d="m71.2 52.1l0.2 0.7c0.1-0.2 0.3-0.3 0.4-0.5l-0.3-0.7c0 0.2-0.1 0.3-0.3 0.5z"/>
	<path d="m44.9 60.3l-0.5 0.5c0.2 0.1 0.4 0.1 0.6 0.2l0.5-0.6c-0.2 0-0.4-0.1-0.6-0.1z"/>
	<path d="m75.1 46.3l0.4 0.7 0.3-0.6-0.4-0.6c-0.1 0.2-0.2 0.3-0.3 0.5z"/>
	<path d="m52.9 61l-0.4 0.7h0.7l0.3-0.7h-0.6z"/>
	<path d="m51.8 61l-0.4 0.7h0.7l0.4-0.7h-0.7z"/>
	<path d="m73.3 49.3l0.3 0.7c0.1-0.1 0.2-0.2 0.2-0.3s0.1-0.1 0.1-0.2l-0.4-0.7c0.1 0.2 0 0.4-0.2 0.5z"/>
	<path d="m49.5 61l-0.5 0.6h0.7l0.4-0.6h-0.6z"/>
	<path d="m74 48.4l0.4 0.7 0.3-0.6-0.4-0.7-0.3 0.6z"/>
	<path d="m50.6 61l-0.4 0.7h0.7l0.4-0.7h-0.7z"/>
	<path d="m72 51.2l0.3 0.7c0.1-0.2 0.3-0.3 0.4-0.5l-0.3-0.7c-0.2 0.2-0.3 0.3-0.4 0.5z"/>
	<path d="m47.2 60.7l-0.5 0.6c0.2 0 0.4 0.1 0.6 0.1l0.5-0.6c-0.2 0-0.4 0-0.6-0.1z"/>
	<path d="m74.6 47.4l0.4 0.7 0.3-0.6-0.4-0.6c-0.1 0.1-0.2 0.3-0.3 0.5z"/>
	<path d="m48.3 60.9l-0.5 0.6c0.2 0 0.4 0.1 0.7 0.1l0.4-0.6c-0.2-0.1-0.4-0.1-0.6-0.1z"/>
	<path d="m54.1 60.9l-0.3 0.7c0.2 0 0.4 0 0.7-0.1l0.3-0.7c-0.3 0.1-0.5 0.1-0.7 0.1z"/>
	<path d="m72.7 50.3l0.3 0.7c0.1-0.2 0.3-0.3 0.4-0.5l-0.4-0.7c-0.1 0.1-0.2 0.3-0.3 0.5z"/>
	<path d="m66.9 56l0.1 0.8c0.2-0.1 0.4-0.3 0.5-0.4l-0.1-0.8c-0.1 0.1-0.3 0.2-0.5 0.4z"/>
	<path d="m66 56.6v0.8c0.2-0.1 0.3-0.2 0.5-0.3l-0.1-0.8c-0.1 0.1-0.2 0.2-0.4 0.3z"/>
	<path d="m40.5 58.8l-0.6 0.4 0.6 0.3 0.6-0.5c-0.2-0.1-0.4-0.2-0.6-0.2z"/>
	<path d="m39.5 58.3l-0.7 0.4 0.6 0.3 0.6-0.4c-0.2-0.1-0.4-0.2-0.5-0.3z"/>
	<path d="m59.8 59.7l-0.2 0.8c0.2-0.1 0.4-0.1 0.6-0.2l0.1-0.8c-0.2 0-0.4 0.1-0.5 0.2z"/>
	<path d="m65 57.2v0.8l0.6-0.3v-0.8l-0.6 0.3z"/>
	<path d="m38.4 57.7l-0.7 0.4 0.6 0.3 0.7-0.4-0.6-0.3z"/>
	<path d="m67.9 55.3l0.1 0.7c0.2-0.1 0.3-0.3 0.5-0.4l-0.1-0.8c-0.2 0.2-0.4 0.3-0.5 0.5z"/>
	<path d="m63 58.4l-0.1 0.8 0.6-0.3v-0.8c-0.2 0.1-0.3 0.2-0.5 0.3z"/>
	<path d="m64 57.8v0.8l0.6-0.3v-0.8l-0.6 0.3z"/>
	<path d="m60.8 59.3l-0.1 0.7c0.2-0.1 0.4-0.2 0.6-0.2l0.1-0.8-0.6 0.3z"/>
	<path d="m61.9 58.8l-0.1 0.8h0.1c0.2-0.1 0.3-0.1 0.5-0.2l0.1-0.8c-0.2 0.1-0.4 0.2-0.6 0.2z"/>
	<path d="m77.7 37.5l0.6 0.5c0-0.2 0.1-0.4 0.1-0.7l-0.6-0.4c0 0.2-0.1 0.4-0.1 0.6z"/>
	<path d="m69.6 53.7l0.2 0.8c0.2-0.1 0.3-0.3 0.5-0.4l-0.2-0.7c-0.2 0.1-0.3 0.2-0.5 0.3z"/>
	<path d="m70.4 52.9l0.2 0.7 0.5-0.5-0.2-0.7c-0.2 0.2-0.3 0.4-0.5 0.5z"/>
	<path d="m56.4 60.6l-0.3 0.7c0.2 0 0.4-0.1 0.6-0.1l0.2-0.7c-0.1 0-0.3 0-0.5 0.1z"/>
	<path d="m42.7 59.6l-0.6 0.5c0.2 0.1 0.4 0.1 0.6 0.2l0.6-0.5c-0.2-0.1-0.4-0.1-0.6-0.2z"/>
	<path d="m68.8 54.5l0.1 0.8c0.2-0.1 0.3-0.3 0.5-0.4l-0.2-0.7c-0.1 0-0.3 0.2-0.4 0.3z"/>
	<path d="m58.6 60l-0.2 0.7c0.2-0.1 0.4-0.1 0.6-0.2l0.2-0.7c-0.2 0.1-0.4 0.2-0.6 0.2z"/>
	<path d="m41.6 59.2l-0.6 0.5c0.2 0.1 0.4 0.2 0.6 0.2l0.6-0.5c-0.2 0-0.4-0.1-0.6-0.2z"/>
	<path d="m57.5 60.3l-0.2 0.7c0.2 0 0.4-0.1 0.6-0.2l0.2-0.7c-0.2 0.1-0.4 0.2-0.6 0.2z"/>
	<path d="m77.6 38.6l0.6 0.5c0-0.2 0.1-0.4 0.1-0.6l-0.6-0.5c-0.1 0.2-0.1 0.4-0.1 0.6z"/>
	<path d="m77.9 35.7v0.6l0.6 0.4v-0.7l-0.6-0.3z"/>
</g>
<g id="center">
	<path d="m51.3 8.6c-14.3 0-25.9 11.6-25.9 25.8s11.6 25.9 25.9 25.9c14.3 0 25.9-11.6 25.9-25.9s-11.6-25.8-25.9-25.8zm21.8 20.8h-0.3c-0.1-0.2-0.1-0.4-0.2-0.5l-0.3-0.3c-0.1-0.1-0.3-0.1-0.5-0.1s-0.4 0-0.7 0.1l-1 0.2c-0.1 0-0.1 0.1-0.1 0.2l0.4 2.2c0.3 0 0.5-0.1 0.7-0.2s0.3-0.1 0.4-0.2 0.2-0.2 0.2-0.3v-0.4h0.3l0.3 2.1h-0.3c0-0.2-0.1-0.3-0.1-0.4-0.1-0.1-0.2-0.2-0.3-0.2-0.1-0.1-0.3-0.1-0.5-0.1s-0.4 0-0.7 0.1l0.3 1.7c0 0.2 0.1 0.3 0.1 0.4 0.1 0.1 0.1 0.2 0.3 0.2 0.1 0.1 0.2 0.1 0.4 0.1s0.4 0 0.6-0.1c0.3 0 0.5-0.1 0.7-0.2s0.3-0.2 0.4-0.3 0.2-0.2 0.2-0.4c0.1-0.2 0.1-0.4 0.1-0.6h0.3l0.1 1.5-4.7 0.8v-0.3c0.2 0 0.3-0.1 0.4-0.1s0.2-0.1 0.2-0.2 0.1-0.2 0.1-0.3v-0.4l-0.6-3.5c0-0.2-0.1-0.3-0.1-0.4s-0.1-0.2-0.1-0.2-0.1-0.1-0.3-0.1h-0.4v-0.3l4.4-0.7 0.3 1.2zm-6.3 4.3l-0.6-3.5h-0.1l-1.4 5.4h-0.2l-3-4.6 0.6 3.5c0 0.3 0.1 0.5 0.1 0.6s0.1 0.3 0.2 0.3c0.1 0.1 0.2 0.1 0.3 0.1h0.4v0.3l-2.1 0.2v-0.3c0.2 0 0.3-0.1 0.4-0.1s0.2-0.1 0.2-0.2 0.1-0.2 0.1-0.3 0-0.3-0.1-0.6l-0.5-3.1c0-0.2-0.1-0.4-0.1-0.5s-0.1-0.2-0.2-0.3-0.2-0.1-0.3-0.1h-0.4v-0.3l1.8-0.3 2.7 4.2 1.2-4.8 1.7-0.3v0.3c-0.2 0-0.3 0.1-0.4 0.1-0.1 0.1-0.2 0.1-0.2 0.2s-0.1 0.2 0 0.4c0 0.2 0 0.3 0.1 0.6l0.5 3c0 0.3 0.1 0.5 0.1 0.6s0.1 0.3 0.2 0.3c0.1 0.1 0.2 0.1 0.3 0.1h0.4v0.3l-2.5 0.4v-0.3c0.2 0 0.3-0.1 0.4-0.1s0.2-0.1 0.2-0.2 0.1-0.2 0.1-0.3c0.1-0.3 0.1-0.5 0.1-0.7zm-38.5-5.6c2.8-10.1 12-17.5 23-17.5 7.8 0 14.8 3.8 19.1 9.6 0.4 0.5 0.6 0.7 0.3 1.3-0.2 0.3-0.8 0.5-0.8 0.5l-40.7 7.2s-0.6 0.2-0.8-0.1-0.2-0.6-0.1-1zm31.5 6.4c-0.1 0.4-0.3 0.7-0.5 1.1-0.2 0.3-0.5 0.6-0.9 0.8s-0.8 0.4-1.2 0.4c-0.4 0.1-0.9 0.1-1.3 0s-0.8-0.2-1.1-0.5c-0.3-0.2-0.6-0.5-0.8-0.8s-0.4-0.7-0.4-1.1c-0.1-0.4-0.1-0.8 0-1.2s0.3-0.8 0.5-1.1 0.5-0.6 0.9-0.8 0.8-0.4 1.2-0.4c0.4-0.1 0.9-0.1 1.3 0s0.8 0.3 1.1 0.5 0.6 0.5 0.8 0.9c0.2 0.3 0.4 0.7 0.4 1.2 0.1 0.2 0.1 0.6 0 1zm-7.8 1.3c-0.1-0.1-0.1-0.2-0.3-0.3-0.1-0.1-0.3-0.2-0.5-0.2-0.2-0.1-0.4-0.1-0.7-0.2s-0.6-0.2-0.9-0.3l-0.6-0.3c-0.1-0.1-0.3-0.2-0.3-0.4-0.1-0.1-0.1-0.3-0.2-0.5v-0.7c0.1-0.2 0.1-0.4 0.3-0.6 0.1-0.2 0.3-0.3 0.5-0.4s0.4-0.2 0.7-0.2h0.6c0.2 0 0.4 0.1 0.6 0.2l0.1-0.4h0.2l0.3 1.5h-0.3c-0.2-0.4-0.4-0.7-0.7-0.8-0.3-0.2-0.6-0.2-0.9-0.2-0.3 0.1-0.5 0.2-0.7 0.4s-0.2 0.4-0.2 0.7c0 0.1 0.1 0.2 0.1 0.3 0.1 0.1 0.1 0.2 0.2 0.2 0.1 0.1 0.2 0.1 0.4 0.2s0.4 0.1 0.6 0.2c0.4 0.1 0.7 0.2 1 0.3s0.5 0.2 0.7 0.3 0.3 0.3 0.4 0.4c0.1 0.2 0.1 0.3 0.2 0.5v0.7l-0.3 0.6c-0.2 0.2-0.4 0.3-0.6 0.5-0.2 0.1-0.5 0.2-0.8 0.3h-0.8c-0.2 0-0.5-0.1-0.8-0.3l-0.2 0.4h-0.2l-0.4-1.7h0.3l0.3 0.6c0.1 0.2 0.3 0.3 0.4 0.4 0.2 0.1 0.4 0.2 0.6 0.2h0.7c0.4-0.1 0.7-0.2 0.8-0.4 0.2-0.2 0.3-0.5 0.2-0.8 0.3 0 0.3-0.1 0.2-0.2zm-7.9 1.8l-0.6-3.5c0-0.2-0.1-0.3-0.1-0.4s-0.1-0.2-0.1-0.2c-0.1-0.1-0.1-0.1-0.3-0.1h-0.4v-0.3l4.4-0.7 0.3 1.3h-0.3c-0.1-0.2-0.1-0.4-0.2-0.5l-0.3-0.3c-0.1-0.1-0.3-0.1-0.5-0.1s-0.4 0-0.7 0.1l-1 0.2c-0.1 0-0.1 0.1-0.1 0.2l0.4 2.2c0.3 0 0.5-0.1 0.7-0.2s0.3-0.1 0.4-0.2 0.2-0.2 0.2-0.3v-0.4h0.3l0.3 2.1h-0.3c0-0.2-0.1-0.3-0.1-0.4-0.1-0.1-0.2-0.2-0.3-0.2-0.1-0.1-0.3-0.1-0.5-0.1s-0.4 0-0.7 0.1l0.3 1.7c0 0.2 0.1 0.3 0.1 0.4 0.1 0.1 0.1 0.2 0.3 0.2 0.1 0.1 0.2 0.1 0.4 0.1s0.4 0 0.6-0.1c0.3 0 0.5-0.1 0.7-0.2s0.3-0.2 0.4-0.3 0.2-0.2 0.2-0.4c0.1-0.2 0.1-0.4 0.1-0.6h0.3l0.1 1.5-4.7 0.8v-0.3c0.2 0 0.3-0.1 0.4-0.1s0.2-0.1 0.2-0.2 0.1-0.2 0.1-0.3c0.1-0.2 0.1-0.3 0-0.5zm-9-2.4c0 0.1 0.1 0.2 0.1 0.3l1.7 3.3 0.5-2.8c0-0.2 0.1-0.4 0.1-0.6s0.1-0.3 0.1-0.5l-0.3-0.3c-0.1-0.1-0.1-0.2-0.2-0.2s-0.1-0.1-0.2-0.1h-0.2v-0.3l2.3-0.4v0.3c-0.1 0-0.3 0-0.4 0.1-0.1 0-0.2 0.1-0.2 0.1l-0.1 0.1v0.1c0 0.1 0 0.2 0.1 0.3 0 0.1 0.1 0.2 0.2 0.4l1.6 3.2 0.6-3.5c0-0.2 0.1-0.4 0.1-0.5v-0.3c0-0.1-0.1-0.2-0.2-0.2h-0.5v-0.3l1.9-0.3v0.3c-0.2 0-0.4 0.1-0.5 0.2s-0.2 0.3-0.2 0.5l-1.1 5.3h-0.3l-2-4-0.9 4.6h-0.3l-2.2-4-0.3-0.6c-0.1-0.2-0.2-0.3-0.3-0.4s-0.2-0.1-0.3-0.2h-0.4v-0.3l2.5-0.4v0.3c-0.3 0-0.4 0.1-0.5 0.2-0.3 0.1-0.3 0.2-0.3 0.3s0.1 0.2 0.1 0.3zm-6.3 6.1v-0.3c0.1 0 0.2-0.1 0.3-0.1s0.1-0.1 0.2-0.1c0.1-0.1 0.1-0.1 0.1-0.2s0.1-0.2 0.1-0.3l1.2-5.3h0.3l2.4 4c0.2 0.3 0.3 0.5 0.4 0.6 0.1 0.2 0.2 0.3 0.3 0.3 0.1 0.1 0.2 0.1 0.3 0.1h0.3v0.3l-2.5 0.4v-0.3c0.3 0 0.4-0.1 0.5-0.2s0.1-0.2 0.1-0.3v-0.1s0-0.1-0.1-0.1c0 0 0-0.1-0.1-0.2 0-0.1-0.1-0.1-0.1-0.2l-0.4-0.8-2 0.3c-0.1 0.2-0.1 0.4-0.1 0.6s-0.1 0.3-0.1 0.4v0.3 0.2c0 0.1 0.1 0.2 0.2 0.3h0.5v0.3l-1.8 0.4zm22.5 16.9c-8 0-15.2-4-19.5-10.1-0.2-0.3-0.3-0.4-0.1-0.7 0.1-0.2 0.6-0.3 0.6-0.3l41.2-7.3s0.4-0.1 0.6 0.1 0.2 0.4 0.1 0.7c-2.6 10.2-11.9 17.6-22.9 17.6z"/>
	<polygon points="30.8 36.1 30.3 38.5 32 38.2"/>
	<path d="m58.6 32.4c-0.2-0.3-0.3-0.6-0.6-0.8-0.2-0.2-0.5-0.3-0.8-0.4s-0.6-0.1-0.9 0-0.6 0.2-0.9 0.3l-0.6 0.6-0.3 0.9v1.1c0.1 0.4 0.2 0.7 0.3 1 0.2 0.3 0.3 0.5 0.6 0.7 0.2 0.2 0.5 0.3 0.8 0.4s0.6 0.1 0.9 0 0.6-0.2 0.9-0.3l0.6-0.6c0.2-0.2 0.3-0.5 0.3-0.9 0.1-0.3 0-0.7 0-1.1l-0.3-0.9z"/>
</g>
</svg>
