<?xml version="1.0" encoding="UTF-8" standalone="no"?>
<!-- Generator: Adobe Illustrator 18.0.0, SVG Export Plug-In . SVG Version: 6.00 Build 0)  -->
<!DOCTYPE svg  PUBLIC '-//W3C//DTD SVG 1.1//EN'  'http://www.w3.org/Graphics/SVG/1.1/DTD/svg11.dtd'>
<svg id="Layer_1" xmlns="http://www.w3.org/2000/svg" xml:space="preserve" viewBox="23.8 1.7 55 65.4" version="1.1" y="0px" x="0px" xmlns:xlink="http://www.w3.org/1999/xlink" enable-background="new 23.8 1.7 55 65.4">
<path d="m74.8 1.7h-47c-2.1 0-3.9 1.8-3.9 3.9v43.1c0 2.1 1.6 4.8 3.4 5.9l20.7 11.8c1.9 1 5 1 6.8 0l20.7-11.8c1.9-1 3.4-3.7 3.4-5.9v-43.1c-0.1-2.1-2-3.9-4.1-3.9zm-24.3 36.4l-9.2-9.2 21.2-18.9 6.9 6.9-18.9 21.2zm-10.4 3.4l-2.3-2.3 1.2-1.1c1.9-1.9 1.9-5 0-6.9l1.1-1.2 9.2 9.2-1.1 1.2c-1.9-1.9-5-1.9-6.9 0l-1.2 1.1zm-2.3 2.3h-4.6l3.5-3.5 2.3 2.3-1.2 1.2zm-4.6 1.6h32.5v1.6h-32.5v-1.6z"/>
</svg>
