<?xml version="1.0" encoding="UTF-8" standalone="no"?>
<!-- Generator: Adobe Illustrator 18.0.0, SVG Export Plug-In . SVG Version: 6.00 Build 0)  -->
<!DOCTYPE svg  PUBLIC '-//W3C//DTD SVG 1.1//EN'  'http://www.w3.org/Graphics/SVG/1.1/DTD/svg11.dtd'>
<svg id="Capa_8" xmlns="http://www.w3.org/2000/svg" xml:space="preserve" viewBox="14.3 4.9 74.1 61.1" version="1.1" y="0px" x="0px" xmlns:xlink="http://www.w3.org/1999/xlink" enable-background="new 14.3 4.9 74.1 61.1">
	<path d="m53 40h26.2c-0.4-14.4-12.3-26-26.8-26-2.7 0-5 0.3-7.5 1.1l8.1 24.9z"/>
	<path d="m81.9 61.2c4.2-6 6.2-12.3 6.4-19.7h-33.4l27 19.7z"/>
	<path d="m46.6 61.2c8.4 2.4 17.1-0.4 22.5-7.3l-16.3-11.8-6.2 19.1z"/>
	<path d="m43.4 66l7.9-24.4h-25.6c0.3 11.2 7.1 20.6 17.7 24.4z"/>
		<polygon points="42.4 12.4 14.8 40 16.1 40 42.7 13.4"/>
		<path d="m41.6 9.9l-27.3 27.2c0 0.5-0.1 0.9-0.1 1.4l27.6-27.6-0.2-1z"/>
		<path d="m40.7 7.4l-25.8 25.9c-0.1 0.5-0.2 1.1-0.3 1.6l26.5-26.5-0.4-1z"/>
		<polygon points="44.8 19.8 24.7 40 26 40 45.1 20.8"/>
		<polygon points="48 29.8 37.8 40 39.2 40 48.3 30.8"/>
		<polygon points="50.4 37.2 47.7 40 49 40 50.8 38.2"/>
		<polygon points="49.6 34.8 44.4 40 45.7 40 50 35.8"/>
		<polygon points="51.2 39.7 51 40 51.3 40"/>
		<path d="m29.7 9.9c-3.2 2.4-6.1 5.2-8.4 8.4l8.4-8.4z"/>
		<polygon points="43.2 14.9 18.1 40 19.4 40 43.5 15.9"/>
		<polygon points="48.8 32.3 41.1 40 42.5 40 49.1 33.3"/>
		<polygon points="47.2 27.3 34.5 40 35.9 40 47.5 28.3"/>
		<polygon points="46.4 24.8 31.2 40 32.6 40 46.7 25.8"/>
		<polygon points="45.6 22.3 28 40 29.3 40 45.9 23.3"/>
		<polygon points="44 17.3 21.4 40 22.7 40 44.3 18.3"/>
		<path d="m39.9 4.9l-23.9 24c-0.2 0.6-0.4 1.2-0.5 1.9l24.8-24.9-0.4-1z"/>
		<path d="m34.7 6.8l-16.4 16.5c-0.4 0.8-0.8 1.6-1.1 2.5l20-20.2c-0.8 0.4-1.6 0.8-2.5 1.2z"/>
</svg>
