<?xml version="1.0" encoding="UTF-8" standalone="no"?>
<!-- Generator: Adobe Illustrator 18.1.1, SVG Export Plug-In . SVG Version: 6.00 Build 0)  -->
<svg id="Capa_1" style="enable-background:new 0 0 16 16" xmlns="http://www.w3.org/2000/svg" xml:space="preserve" viewBox="0 0 16 16" version="1.1" y="0px" x="0px" xmlns:xlink="http://www.w3.org/1999/xlink">
		<path d="m13 0h-10c-1.657 0-3 1.343-3 3v10c0 1.657 1.343 3 3 3h10c1.657 0 3-1.343 3-3v-10c0-1.657-1.343-3-3-3zm-1.02 6.204l0.006 0.255c0 2.604-1.981 5.604-5.604 5.604-1.112 0-2.147-0.326-3.019-0.885 0.154 0.018 0.311 0.028 0.47 0.028 0.923 0 1.772-0.315 2.446-0.843-0.862-0.016-1.589-0.586-1.84-1.368 0.121 0.022 0.243 0.034 0.371 0.034 0.18 0 0.354-0.023 0.519-0.068-0.901-0.182-1.58-0.977-1.58-1.931v-0.025c0.266 0.148 0.569 0.236 0.892 0.247-0.528-0.353-0.876-0.956-0.876-1.639 0-0.361 0.097-0.699 0.266-0.99 0.971 1.192 2.423 1.976 4.06 2.058-0.034-0.144-0.051-0.295-0.051-0.449 0-1.087 0.882-1.969 1.97-1.969 0.566 0 1.078 0.239 1.438 0.622 0.448-0.089 0.87-0.253 1.251-0.478-0.147 0.46-0.459 0.846-0.866 1.09 0.397-0.047 0.778-0.154 1.131-0.31-0.264 0.394-0.599 0.741-0.984 1.017z" fill="#010002"/>
</svg>
