<?xml version="1.0" encoding="UTF-8" standalone="no"?>
<!-- Generator: Adobe Illustrator 16.0.0, SVG Export Plug-In . SVG Version: 6.00 Build 0)  -->
<!DOCTYPE svg  PUBLIC '-//W3C//DTD SVG 1.1//EN'  'http://www.w3.org/Graphics/SVG/1.1/DTD/svg11.dtd'>
<svg id="Capa_1" style="enable-background:new 0 0 553.102 553.102" xmlns="http://www.w3.org/2000/svg" xml:space="preserve" height="553.1px" viewBox="0 0 553.102 553.102" width="553.1px" version="1.1" y="0px" x="0px" xmlns:xlink="http://www.w3.org/1999/xlink">
		<path d="m333.09 326.97c-8.641 0-16.805 4.799-24.485 14.4v-57.98h-24.125v177.53h24.125v-12.969c7.919 9.848 16.077 14.768 24.485 14.768 9.842 0 16.2-5.037 19.083-15.123 1.677-5.049 2.521-13.801 2.521-26.291v-52.576c0-12.719-0.845-21.604-2.521-26.641-2.87-10.09-9.23-15.12-19.07-15.12zm-2.16 96.13c0 11.775-3.482 17.639-10.446 17.639-4.082 0-8.042-1.916-11.879-5.752v-80.668c3.837-3.826 7.797-5.754 11.879-5.754 6.958 0 10.446 6.004 10.446 18.006v56.52z"/>
		<path d="m409.42 326.97c-12.24 0-21.849 4.572-28.807 13.686-4.804 6.469-7.203 16.811-7.203 30.961v46.463c0 14.162 2.521 24.473 7.564 30.961 6.958 9.131 16.683 13.684 29.168 13.684 12.724 0 22.325-4.797 28.807-14.406 2.883-4.32 4.682-9.113 5.404-14.406 0.477-3.348 0.716-8.525 0.716-15.49v-3.236h-24.486v7.734s-0.062 4.498-0.178 5.949c-0.122 1.432-0.177 2.277-0.177 2.516-1.438 6.248-5.043 9.352-10.802 9.352-8.165 0-12.24-6.121-12.24-18.354v-23.41h47.889v-27.361c0-13.912-2.521-24.236-7.559-30.963-6.48-9.1-15.84-13.67-28.09-13.67zm11.53 52.21h-23.765v-12.254c0-12.238 3.96-18.354 11.88-18.354 7.925 0 11.885 6.121 11.885 18.354v12.25z"/>
		<path d="m239.82 429.59c-5.281 7.441-10.324 11.156-15.123 11.156-3.366 0-5.165-1.799-5.397-5.404-0.245-0.465-0.361-3.598-0.361-9.352v-97.223h-23.764v104.43c0 9.131 0.722 15.6 2.16 19.438 2.161 6.738 7.203 10.086 15.123 10.086 8.88 0 18.005-5.404 27.369-16.205v14.406h24.125v-132.15h-24.125v100.82h-0.02z"/>
		<path d="m271.15 193.01c7.681 0 11.524-6.132 11.524-18.372v-56.182c0-12.479-3.843-18.721-11.524-18.721-7.687 0-11.524 6.242-11.524 18.721v56.182c0 12.24 3.84 18.37 11.52 18.37z"/>
		<polygon points="108.03 308.6 136.12 308.6 136.12 460.92 162.76 460.92 162.76 308.6 191.57 308.6 191.57 283.39 108.03 283.39"/>
		<path d="m449.4 0h-345.69c-28.568 0-52.993 10.153-73.281 30.422-20.288 20.301-30.429 44.72-30.429 73.288v345.68c0 28.566 10.141 52.998 30.429 73.268 20.282 20.281 44.707 30.441 73.281 30.441h345.69c28.562 0 52.986-10.154 73.274-30.441 20.281-20.27 30.429-44.701 30.429-73.268v-345.68c0-28.568-10.147-52.987-30.429-73.287-20.29-20.27-44.71-30.423-73.27-30.423zm-122.79 79.939h24.125v97.938c0 5.765 0.122 8.892 0.361 9.37 0.238 3.855 2.16 5.765 5.759 5.765 4.798 0 9.841-3.715 15.122-11.169v-101.91h24.125v133.23h-24.125v-14.406c-9.847 10.802-19.088 16.206-27.729 16.206-7.687 0-12.846-3.237-15.483-9.719-1.438-4.32-2.16-10.918-2.16-19.804v-105.51zm-91.11 43.211c0-13.911 2.521-24.364 7.564-31.322 6.481-9.113 15.845-13.685 28.085-13.685 11.756 0 21.12 4.572 28.084 13.685 5.043 6.964 7.559 17.411 7.559 31.322v46.812c0 14.4-2.521 24.854-7.559 31.322-6.965 9.131-16.328 13.685-28.084 13.685-12.24 0-21.604-4.56-28.085-13.685-5.043-6.946-7.564-17.387-7.564-31.322v-46.81zm-64.81-88.939l19.088 70.215 18.36-70.215h27.008l-32.406 106.59v72.369h-26.646v-72.369c-2.644-13.207-8.164-32.167-16.566-56.897-1.683-5.514-4.45-13.801-8.287-24.853-3.843-11.028-6.726-19.315-8.642-24.841h28.1zm296.71 434.62c-2.405 10.338-7.51 19.09-15.307 26.293-7.803 7.203-16.866 11.406-27.185 12.6-32.89 3.6-82.345 5.404-148.36 5.404-66.023 0-115.47-1.799-148.36-5.404-10.325-1.193-19.388-5.402-27.185-12.6-7.803-7.203-12.907-15.949-15.3-26.293-4.804-20.158-7.203-51.371-7.203-93.623 0-41.523 2.399-72.736 7.203-93.623 2.399-10.551 7.503-19.37 15.3-26.458 7.797-7.087 16.983-11.224 27.546-12.436 32.644-3.599 81.978-5.404 148-5.404 66.255 0 115.7 1.799 148.36 5.404 10.324 1.212 19.449 5.343 27.368 12.436 7.926 7.087 13.085 15.906 15.484 26.458 4.559 19.932 6.842 51.133 6.842 93.623 0 42.25-2.4 73.47-7.2 93.62z"/>
</svg>
